# xmcd
#
# Track frame offsets:
#        150
#        18730
#        39020
#        56132
#
# Disc length: 969 seconds
#
# Revision: 0
# Processed by: cddbd v1.5.1PL0 Copyright (c) Steve Scherf et al.
# Submitted via: ExactAudioCopy v0.95a5
#
DISCID=2b03c704
DTITLE=TAKUI - HELLO MY FRIENDS
DYEAR=2005
DGENRE=Rock
TTITLE0=HELLO MY FRIENDS
TTITLE1=taiyougashizumumaeni
TTITLE2=PUNK(LIVE AT SHIBUYA O-EAST)
TTITLE3=BE HAPPY(LIVE AT SHIBUYA O-EAST)
EXTD=
EXTT0=
EXTT1=
EXTT2=
EXTT3=
PLAYORDER=
